ModelForces
version=1
nRows=4
nColumns=94
inDegrees=yes

This file contains the forces exerted on a model during a simulation.

A force is a generalized force, meaning that it can be either a force (N) or a torque (Nm).

Units are S.I. units (second, meters, Newtons, ...)
Angles are in degrees.

endheader 
time	addbrev_l	addlong_l	addmagDist_l	addmagIsch_l	addmagMid_l	addmagProx_l	bflh_l	bfsh_l	edl_l	ehl_l	fdl_l	fhl_l	gaslat_l	gasmed_l	glmax1_l	glmax2_l	glmax3_l	glmed1_l	glmed2_l	glmed3_l	glmin1_l	glmin2_l	glmin3_l	grac_l	iliacus_l	perbrev_l	perlong_l	piri_l	psoas_l	recfem_l	sart_l	semimem_l	semiten_l	soleus_l	tfl_l	tibant_l	tibpost_l	vasint_l	vaslat_l	vasmed_l	addbrev_r	addlong_r	addmagDist_r	addmagIsch_r	addmagMid_r	addmagProx_r	bflh_r	bfsh_r	edl_r	ehl_r	fdl_r	fhl_r	gaslat_r	gasmed_r	glmax1_r	glmax2_r	glmax3_r	glmed1_r	glmed2_r	glmed3_r	glmin1_r	glmin2_r	glmin3_r	grac_r	iliacus_r	perbrev_r	perlong_r	piri_r	psoas_r	recfem_r	sart_r	semimem_r	semiten_r	soleus_r	tfl_r	tibant_r	tibpost_r	vasint_r	vaslat_r	vasmed_r	lumbar_extension	lumbar_bending	lumbar_rotation	arm_flex_l	arm_add_l	arm_rot_l	arm_flex_r	arm_add_r	arm_rot_r	elbow_flex_l	elbow_flex_r	pro_sup_l	pro_sup_r	
         11.10000000	        121.52914085	        212.51568761	         75.40460403	          3.50938893	        123.26445436	        177.60766629	        278.00143255	         53.39137919	         62.83568498	         27.52582026	          4.78291541	         11.54500198	         54.25835728	        114.33490677	          7.93376163	         11.85988163	         46.61177903	         12.71909289	          8.60550921	          9.15304207	          4.54296908	          5.09273018	          5.65438933	         22.76832841	         41.05280178	         16.40443653	         53.47925868	          4.24871102	        588.50016858	         31.73103405	         45.96089738	        305.76308358	         35.05412680	         85.54841602	          5.92944970	        193.12699407	         18.02723958	         18.76241834	         55.69230460	         27.14444622	         59.87386910	        162.94987736	          6.15918450	          2.07403257	         39.02704226	        109.59114079	        392.47481469	        224.87722099	        146.88742824	         16.49776758	          8.11362426	          6.97375200	         66.35393176	        143.37286641	          5.56609651	         15.58929512	         73.11062228	          1.43066787	          1.29562259	          1.18639434	          1.34136940	          1.37063990	          0.09852179	         72.88984477	         16.84634459	          7.61761323	         38.77936185	          8.24952090	        285.32314838	        140.48562958	        190.47179982	        279.20378549	         52.21550180	          0.07056410	          0.05024167	         93.41896152	         25.89053772	         14.97843729	         44.61568060	         22.52826189	        -56.85182436	        -41.87869471	        -42.04698329	        -61.55775661	       -100.70117734	         60.24816706	         69.26855800	       -127.24901310	       -123.82709580	         37.24758513	        108.29992130	         15.93573112	         -5.15029545	
         11.11000000	        100.24926536	        174.80660642	         78.76550862	         25.87256936	         94.56043070	        165.33658314	        176.36618294	         46.93242783	         66.52804180	          5.39867253	          4.55504877	         11.26545861	         48.48755532	        102.73760948	          7.34059246	         10.90730652	        275.75038820	         12.29494739	          8.30569702	          8.72442939	          4.45123168	          5.13146392	          6.31997892	         19.04932361	         35.53888443	         22.95147703	         56.89693180	          4.35563741	        505.47467374	         34.08487546	         40.05926206	          0.06870745	         27.55329966	         89.19761618	          6.51666015	        212.41984727	         16.99210816	         16.19462834	         43.97719252	         22.45095951	         48.28824943	        134.53543711	          4.54608027	          1.55900048	         31.74212569	         92.78695623	        248.64021591	        179.81345902	         92.27049054	         14.00570005	          5.99738121	          7.14844726	         32.22412359	         34.85412518	          4.57461267	         11.73758819	         55.27891679	          1.74072423	          1.51812154	          1.67281417	          1.57776033	          2.24085559	          0.15242169	         58.14976687	        221.36462796	         12.10697570	         37.54236394	          7.73008197	        624.98979490	        331.41170291	        162.32946100	        151.00238250	         40.68002666	          0.07098014	         30.75017737	         79.51306070	         20.27282312	         13.87834614	         41.59169996	         21.08807634	        -52.24740396	         43.05527962	        -51.16068311	        -90.12399733	       -108.99598398	         70.49000738	         14.70981514	        -57.53415246	        -52.27901263	         62.49392253	        118.34322624	          0.58205731	         -0.68022453	
         11.12000000	         83.69951516	        151.83739095	         59.80808991	         19.40449749	         71.30887759	        131.61860309	        113.03070975	         40.84419957	         68.58767776	         17.20054901	          4.42849537	         11.26648134	         42.04511478	         89.38538292	          6.94358210	         10.20110173	        201.31251535	         12.12766002	          8.18927634	          8.55340547	          4.45015541	          5.23169911	          6.65013291	         20.33498454	         30.08601341	         18.65108420	         72.59488227	          4.55759559	        425.83905297	         35.52634185	         34.22438298	        233.55840694	         22.90242715	         89.80432398	          6.93846863	        201.34457741	         16.37857795	         55.60703655	        175.14141830	         91.45455788	         38.10372705	        105.87183879	          4.41558690	          1.59511546	         25.99751279	         77.86003005	        159.74390515	        185.83790109	        170.99691203	         10.97171451	          2.86199226	          3.39882473	         11.82770365	         74.69513285	          3.81041457	          9.66309394	         45.73885972	          1.95835939	          1.80164289	          1.78438655	          1.71600886	          5.64028555	          0.16341330	         45.72607612	        583.85047547	         18.67847132	         52.00579962	          8.03894496	        985.76615266	        448.56789409	        152.42444547	        106.74566590	         33.24822005	          0.05590123	         28.75698161	         61.02198002	          8.32646729	         14.43703922	         43.10092383	         21.80904748	        -80.49516475	        106.88925622	        -99.74299202	        -98.14590081	        -43.91336484	         52.49489382	        -26.58622439	         -5.64936464	          1.76009391	         81.75073781	        127.62206538	          4.66297347	         -3.65856750	
         11.13000000	         72.20200542	        127.69623782	         47.91891202	         15.67242363	         56.39852718	        108.46087072	         88.49700439	         35.35436047	         64.65933424	          4.73248407	          3.75017414	          9.12890752	         36.32069331	         77.46465145	          5.73852148	          9.49510842	        168.11630099	         11.78735895	          8.04770680	          8.44366493	          4.38131816	          5.25738887	          6.52838106	         18.93530456	         25.03097859	         21.33534947	         56.42077979	          4.90127685	        353.89837777	         35.51932199	         28.97214693	          0.01114573	         20.21129108	         83.03146407	          7.11772922	        179.15942520	         13.37857730	         41.47726479	        131.01597688	         69.09131032	         29.05235804	         76.05934258	          4.03415230	          1.53364251	         20.23325474	         63.39756790	        124.18144324	        201.55818248	        270.25599399	          8.42393586	          1.61957872	          1.33332505	         44.07182425	         91.99669067	          4.89824975	          8.75932060	         38.41036048	          5.43057213	          4.18261546	          4.50592010	          6.76854730	         15.38456178	          0.78048906	         34.85090098	        695.98235174	         17.80348900	         71.49503284	         10.57007027	        862.08394318	        402.74883356	        175.93127374	         83.22609998	         26.58016403	          0.04300967	         35.72743262	         45.43613672	          2.55423241	         15.66028113	         46.44483212	         23.39303485	       -119.79110596	        110.29385370	       -120.95688813	        -32.64195075	          5.45451895	         -0.59303444	        -58.13435344	         32.55810244	         40.50049914	         78.43612179	        137.41139092	         10.30968751	        -17.15375816	
